<?xml version="1.0" encoding="UTF-8" standalone="no"?>
<!-- Created with Inkscape (http://www.inkscape.org/) -->

<svg
   width="63.553173mm"
   height="30.575951mm"
   viewBox="0 0 63.553173 30.575951"
   version="1.1"
   id="SVGRoot"
   sodipodi:docname="icon.svg"
   inkscape:version="1.1.1 (3bf5ae0d25, 2021-09-20)"
   xmlns:inkscape="http://www.inkscape.org/namespaces/inkscape"
   xmlns:sodipodi="http://sodipodi.sourceforge.net/DTD/sodipodi-0.dtd"
   xmlns="http://www.w3.org/2000/svg"
   xmlns:svg="http://www.w3.org/2000/svg">
  <sodipodi:namedview
     id="namedview1627"
     pagecolor="#000000"
     bordercolor="#999999"
     borderopacity="1.0"
     inkscape:pageshadow="0"
     inkscape:pageopacity="1.0"
     inkscape:pagecheckerboard="0"
     inkscape:document-units="mm"
     showgrid="false"
     inkscape:zoom="0.733172"
     inkscape:cx="-81.154218"
     inkscape:cy="184.13142"
     inkscape:window-width="1920"
     inkscape:window-height="1009"
     inkscape:window-x="-8"
     inkscape:window-y="-8"
     inkscape:window-maximized="1"
     inkscape:current-layer="layer1"
     fit-margin-top="0"
     fit-margin-left="0"
     fit-margin-right="0"
     fit-margin-bottom="0" />
  <defs
     id="defs1622" />
  <g
     inkscape:label="图层 1"
     inkscape:groupmode="layer"
     id="layer1"
     transform="translate(-96.333983,-99.831099)">
    <g
       id="g1605"
       transform="matrix(0.26458333,0,0,0.26458333,221.3123,-132.8489)">
      <g
         transform="translate(3461.041,-2490.1168)"
         id="g587">
        <path
           inkscape:connector-curvature="0"
           class="st0"
           d="m -3879.7,3397 c -1,-1.1 -2.5,-1.7 -4.1,-1.7 -1.6,0 -3,0.6 -4.1,1.6 -1.1,1.1 -1.7,2.5 -1.7,4.1 l -0.1,39.3 -32.6,-42.8 c -0.6,-0.7 -1.3,-1.3 -2.3,-1.7 -0.9,-0.4 -1.8,-0.5 -2.7,-0.5 -1.7,0 -3.1,0.6 -4.3,1.7 -1.2,1.1 -1.7,2.6 -1.7,4.4 l -0.1,55.5 c 0,1.6 0.5,3 1.6,4.1 1,1.1 2.5,1.7 4.1,1.7 1.6,0 3,-0.5 4.1,-1.6 1.1,-1.1 1.7,-2.5 1.7,-4.1 l 0.1,-38.9 32.7,42.8 0.1,0.1 c 0.6,0.7 1.3,1.2 2.3,1.5 0.8,0.3 1.7,0.4 2.5,0.4 1.8,0 3.2,-0.6 4.4,-1.8 1.1,-1.2 1.7,-2.7 1.7,-4.4 l 0.1,-55.4 c -0.1,-1.8 -0.6,-3.2 -1.7,-4.3 z"
           id="path589"
           style="fill:#ffffff" />
        <path
           inkscape:connector-curvature="0"
           class="st0"
           d="m -3829.2,3395.5 -31.1,-0.1 c -1.7,0 -3.1,0.6 -4.3,1.8 -1.2,1.2 -1.8,2.6 -1.8,4.3 l -0.1,55.1 c 0,1.7 0.6,3.1 1.8,4.3 1.2,1.2 2.7,1.8 4.4,1.8 1.7,0 3.1,-0.6 4.3,-1.7 1.2,-1.2 1.9,-2.7 1.9,-4.3 l 0.1,-22.2 20.7,0.1 c 1.7,0 3.2,-0.6 4.3,-1.7 1.2,-1.1 1.8,-2.5 1.8,-4.1 0,-1.8 -0.6,-3.2 -1.7,-4.3 -1.1,-1.1 -2.6,-1.7 -4.3,-1.7 l -20.7,-0.1 v -15.4 l 24.8,0.1 c 1.7,0 3.1,-0.6 4.3,-1.7 1.2,-1.1 1.8,-2.6 1.8,-4.1 0,-1.8 -0.6,-3.2 -1.7,-4.3 -1.3,-1.3 -2.7,-1.8 -4.5,-1.8 z"
           id="path591"
           style="fill:#ffffff" />
        <path
           inkscape:connector-curvature="0"
           class="st0"
           d="m -3766.1,3450.2 c -1.1,-1.5 -2.7,-2.2 -4.6,-2.2 -1.1,0 -2.2,0.2 -3.1,0.7 l -0.1,0.1 c -3.4,2 -7.2,3 -11.4,3 -4.1,0 -7.8,-0.9 -11,-2.7 -3.2,-1.8 -5.8,-4.3 -7.6,-7.7 -1.8,-3.4 -2.8,-7.5 -2.8,-12.2 0,-4.4 0.9,-8.3 2.7,-11.6 1.8,-3.3 4.3,-5.9 7.5,-7.7 3.2,-1.8 7,-2.8 11.2,-2.8 4.1,0 7.9,1 11.4,3 1,0.6 2.1,0.8 3.3,0.9 1.8,0 3.3,-0.7 4.4,-2.1 1,-1.2 1.5,-2.6 1.5,-4.1 0,-2.3 -1.1,-4.1 -3.1,-5.2 -5.4,-3.1 -11.3,-4.6 -17.4,-4.6 -6.4,0 -12.3,1.5 -17.5,4.4 -5.2,3 -9.4,7.1 -12.4,12.3 -3,5.2 -4.5,11.1 -4.5,17.5 0,7 1.5,13.2 4.6,18.4 3.1,5.3 7.3,9.3 12.5,12.1 5.2,2.7 10.9,4.2 17.1,4.2 3,0 6.1,-0.4 9.2,-1.2 3.1,-0.8 5.9,-1.9 8.4,-3.3 0.9,-0.5 1.7,-1.2 2.2,-2.1 0.6,-0.9 0.9,-1.9 0.9,-3 0.1,-1.5 -0.4,-2.9 -1.4,-4.1 z"
           id="path593"
           style="fill:#ffffff" />
      </g>
      <path
         inkscape:connector-curvature="0"
         id="path65-6_2_"
         class="st0"
         d="m -232.15896,937.18313 c -0.2,-20.9 -8.5,-41 -23.5,-55.5 -3.3,-3 -7.7,-3.1 -10.7,0.2 -2.8,2.5 -2.7,6 -0.7,9.1 l 1,1.5 c 11.9,12.1 19,27.8 18.8,44.7 0.1,17.3 -6.1,32.8 -18.1,44.7 -2.8,2.5 -2.7,6 -0.7,9.1 l 1,1.5 c 1.5,1.2 3.5,2.1 5.1,2.5 1.9,-0.5 4.2,-1.2 5.5,-2.8 v 0 c 14.5,-14.6 22.4,-34.1 22.3,-55 z"
         style="fill:#ffffff" />
      <path
         inkscape:connector-curvature="0"
         id="path67-85_2_"
         class="st0"
         d="m -261.05896,937.38313 c -0.2,-12.9 -5.3,-25.7 -14.8,-34.9 -1.5,-1.2 -3.5,-2.1 -5.1,-2.5 -2.2,-0.1 -3.8,0.9 -5.3,1.9 -2.8,2.5 -2.7,6 -0.7,9.1 l 1,1.5 c 6.1,6.2 10.3,15.2 10.1,24 0.1,9.4 -3.1,18 -10,24.4 -2.8,2.5 -2.7,6 -0.7,9.1 l 1,1.5 c 1.5,1.2 3.5,2.1 5.1,2.5 2.2,0.1 3.8,-0.9 5.3,-1.9 9.2,-9.2 14.3,-21.9 14.1,-34.7 z"
         style="fill:#ffffff" />
    </g>
  </g>
</svg>
